<svg width="24" height="24" viewBox="0 0 24 24" fill="none" xmlns="http://www.w3.org/2000/svg">
<g id="Type=EyeSlash">
<g id="Vector">
<path fill-rule="evenodd" clip-rule="evenodd" d="M3.82698 3.01007C4.23564 2.63856 4.86809 2.66868 5.23959 3.07733L7.65975 5.73951C7.67131 5.75159 7.68259 5.764 7.69359 5.77673L17.7847 16.877C17.7963 16.8891 17.8076 16.9015 17.8186 16.9143L20.2396 19.5773C20.6111 19.986 20.581 20.6184 20.1723 20.9899C19.7637 21.3615 19.1312 21.3313 18.7597 20.9227L16.8163 18.7849C15.2953 19.4333 13.6544 19.7629 11.9956 19.7499C7.91518 19.7487 5.05077 17.9027 3.23005 16.082C2.32227 15.1742 1.668 14.2682 1.23936 13.5874C1.02455 13.2462 0.864972 12.9594 0.757377 12.754C0.703543 12.6512 0.662607 12.5686 0.634175 12.5095C0.619955 12.48 0.608852 12.4563 0.600815 12.4389L0.591051 12.4176L0.58788 12.4106L0.58672 12.408L0.586246 12.407C0.586038 12.4065 0.585843 12.406 1.49965 11.9999C0.585454 11.5946 0.585596 11.5943 0.585743 11.594L0.586838 11.5915L0.58883 11.5871L0.59465 11.5743L0.613684 11.5332C0.629679 11.4992 0.65233 11.452 0.681794 11.393C0.740698 11.2751 0.826988 11.1096 0.94195 10.9073C1.17157 10.5032 1.51736 9.94906 1.99008 9.33176C2.7528 8.33577 3.86061 7.15644 5.36151 6.18466L3.75971 4.42268C3.38821 4.01402 3.41832 3.38157 3.82698 3.01007ZM3.57797 10.5477C4.29077 9.61694 5.32796 8.53283 6.72861 7.68846L15.3742 17.1986C14.2948 17.5717 13.1564 17.7593 12.0078 17.7499L11.9997 17.7499C8.58223 17.7499 6.19794 16.2215 4.64426 14.6678C3.86454 13.8881 3.30006 13.1066 2.93182 12.5218C2.80508 12.3205 2.70227 12.1436 2.62253 11.9994C2.64074 11.9665 2.66016 11.9318 2.6808 11.8954C2.87305 11.5571 3.16944 11.0812 3.57797 10.5477ZM2.41266 11.592C2.41244 11.5915 2.41253 11.5917 2.41266 11.592V11.592Z" fill="currentColor"/>
<path d="M1.49965 11.9999L0.586246 12.407C0.471463 12.1487 0.471208 11.8524 0.585743 11.594L1.49965 11.9999Z" fill="currentColor"/>
<path d="M11.9997 4.25001C11.6079 4.25001 11.2414 4.27067 10.8854 4.30034C10.335 4.3462 9.92599 4.82955 9.97186 5.37993C10.0177 5.9303 10.5011 6.33929 11.0514 6.29343C11.3704 6.26685 11.6789 6.25001 11.9997 6.25001C15.4171 6.25001 17.8014 7.77844 19.355 9.33211C20.1348 10.1118 20.6993 10.8933 21.0675 11.4781C21.1939 11.6789 21.2965 11.8554 21.3761 11.9993C21.2981 12.1401 21.198 12.312 21.0753 12.5073C20.7123 13.0848 20.1561 13.8582 19.3886 14.6344C19.0003 15.0271 19.0038 15.6603 19.3965 16.0486C19.7892 16.4369 20.4224 16.4333 20.8107 16.0406C21.7026 15.1387 22.3464 14.2433 22.7686 13.5716C22.9801 13.235 23.1374 12.9523 23.2436 12.75C23.2966 12.6488 23.337 12.5675 23.3651 12.5094C23.3791 12.4804 23.3901 12.4571 23.398 12.44L23.4077 12.419L23.4108 12.4121L23.412 12.4095L23.4124 12.4085C23.4125 12.4083 23.4128 12.4076 22.4997 12L23.4124 12.4085C23.528 12.1496 23.5286 11.8529 23.4135 11.5939L22.4997 12C23.4135 11.5939 23.4137 11.5943 23.4135 11.5939L23.4126 11.5919L23.4114 11.5893L23.4083 11.5823L23.3985 11.561C23.3905 11.5436 23.3794 11.5199 23.3651 11.4904C23.3367 11.4313 23.2958 11.3487 23.2419 11.246C23.1343 11.0406 22.9748 10.7537 22.76 10.4125C22.3313 9.73172 21.677 8.82568 20.7693 7.9179C18.9479 6.09658 16.0822 4.25001 11.9997 4.25001Z" fill="currentColor"/>
</g>
</g>
</svg>
