<svg width="24" height="24" viewBox="0 0 24 24" fill="none" xmlns="http://www.w3.org/2000/svg">
<g id="Type=Export, Variants=Circle Graph" clip-path="url(#clip0_2184_6526)">
<mask id="mask0_2184_6526" style="mask-type:alpha" maskUnits="userSpaceOnUse" x="0" y="0" width="24" height="24">
<rect id="Bounding box" width="24" height="24" transform="matrix(-1 0 0 1 24 0)" fill="white"/>
</mask>
<g mask="url(#mask0_2184_6526)">
<path id="Circle Graph" d="M11.5 22C12.8833 22 14.1833 21.7375 15.4 21.2125C16.6167 20.6875 17.675 19.975 18.575 19.075C19.475 18.175 20.1875 17.1167 20.7125 15.9C21.2375 14.6833 21.5 13.3833 21.5 12C21.5 10.6167 21.2375 9.31667 20.7125 8.1C20.1875 6.88333 19.475 5.825 18.575 4.925C17.675 4.025 16.6167 3.3125 15.4 2.7875C14.1833 2.2625 13 2 12.5 2V4.05V6.075V8.125C13.3667 8.35833 14.0833 8.82917 14.65 9.5375C15.2167 10.2458 15.5 11.0667 15.5 12C15.5 13.1 15.1083 14.0417 14.325 14.825C13.5417 15.6083 12.6 16 11.5 16C10.4 16 9.45833 15.6083 8.675 14.825C7.89167 14.0417 7.5 13.1 7.5 12C7.5 11.4 7.62083 10.8458 7.8625 10.3375C8.10417 9.82917 8.43333 9.38333 8.85 9L7.425 7.575C6.84167 8.125 6.375 8.77917 6.025 9.5375C5.675 10.2958 5.5 11.1167 5.5 12C5.5 13.6667 6.08333 15.0833 7.25 16.25C8.41667 17.4167 9.83333 18 11.5 18C13.1667 18 14.5833 17.4167 15.75 16.25C16.9167 15.0833 17.5 13.6667 17.5 12C17.5 10.5 17.025 9.19583 16.075 8.0875C15.125 6.97917 13.9333 6.30833 12.5 6.075V4.05C14.4833 4.3 16.1458 5.175 17.4875 6.675C18.8292 8.175 19.5 9.95 19.5 12C19.5 14.2333 18.725 16.125 17.175 17.675C15.625 19.225 13.7333 20 11.5 20C9.26667 20 7.375 19.225 5.825 17.675C4.275 16.125 3.5 14.2333 3.5 12C3.5 10.85 3.725 9.775 4.175 8.775C4.625 7.775 5.24167 6.90833 6.025 6.175L4.6 4.75C3.65 5.66667 2.89583 6.74583 2.3375 7.9875C1.77917 9.22917 1.5 10.5667 1.5 12C1.5 13.3833 1.7625 14.6833 2.2875 15.9C2.8125 17.1167 3.525 18.175 4.425 19.075C5.325 19.975 6.38333 20.6875 7.6 21.2125C8.81667 21.7375 10.1167 22 11.5 22Z" fill="currentColor"/>
</g>
</g>
<defs>
<clipPath id="clip0_2184_6526">
<rect width="24" height="24" fill="white"/>
</clipPath>
</defs>
</svg>
