<svg width="24" height="24" viewBox="0 0 24 24" fill="none" xmlns="http://www.w3.org/2000/svg">
<g id="Type=Export, Variants=Lock" clip-path="url(#clip0_3407_9752)">
<mask id="mask0_3407_9752" style="mask-type:alpha" maskUnits="userSpaceOnUse" x="0" y="0" width="25" height="25">
<rect id="Bounding box" x="0.0600586" y="0.273682" width="24" height="24" fill="#D9D9D9"/>
</mask>
<g mask="url(#mask0_3407_9752)">
<path id="Lock" d="M6.06006 22.2737C5.51006 22.2737 5.03923 22.0778 4.64756 21.6862C4.25589 21.2945 4.06006 20.8237 4.06006 20.2737V10.2737C4.06006 9.72368 4.25589 9.25285 4.64756 8.86118C5.03923 8.46951 5.51006 8.27368 6.06006 8.27368H7.06006V6.27368C7.06006 4.89035 7.54756 3.71118 8.52256 2.73618C9.49756 1.76118 10.6767 1.27368 12.0601 1.27368C13.4434 1.27368 14.6226 1.76118 15.5976 2.73618C16.5726 3.71118 17.0601 4.89035 17.0601 6.27368V8.27368H18.0601C18.6101 8.27368 19.0809 8.46951 19.4726 8.86118C19.8642 9.25285 20.0601 9.72368 20.0601 10.2737V20.2737C20.0601 20.8237 19.8642 21.2945 19.4726 21.6862C19.0809 22.0778 18.6101 22.2737 18.0601 22.2737H6.06006ZM6.06006 20.2737H18.0601V10.2737H6.06006V20.2737ZM12.0601 17.2737C12.6101 17.2737 13.0809 17.0778 13.4726 16.6862C13.8642 16.2945 14.0601 15.8237 14.0601 15.2737C14.0601 14.7237 13.8642 14.2528 13.4726 13.8612C13.0809 13.4695 12.6101 13.2737 12.0601 13.2737C11.5101 13.2737 11.0392 13.4695 10.6476 13.8612C10.2559 14.2528 10.0601 14.7237 10.0601 15.2737C10.0601 15.8237 10.2559 16.2945 10.6476 16.6862C11.0392 17.0778 11.5101 17.2737 12.0601 17.2737ZM9.06006 8.27368H15.0601V6.27368C15.0601 5.44035 14.7684 4.73202 14.1851 4.14868C13.6017 3.56535 12.8934 3.27368 12.0601 3.27368C11.2267 3.27368 10.5184 3.56535 9.93506 4.14868C9.35173 4.73202 9.06006 5.44035 9.06006 6.27368V8.27368Z" fill="currentColor"/>
</g>
</g>
<defs>
<clipPath id="clip0_3407_9752">
<rect width="24" height="24" fill="white"/>
</clipPath>
</defs>
</svg>
