<svg width="24" height="24" viewBox="0 0 24 24" fill="none" xmlns="http://www.w3.org/2000/svg">
<g id="Type=Export, Variants=Sliders" clip-path="url(#clip0_2184_6541)">
<mask id="mask0_2184_6541" style="mask-type:alpha" maskUnits="userSpaceOnUse" x="0" y="0" width="25" height="25">
<rect id="Bounding box" x="0.0322266" y="0.481934" width="24" height="24" fill="#D9D9D9"/>
</mask>
<g mask="url(#mask0_2184_6541)">
<path id="Sliders" d="M11.0322 21.4819V15.4819H13.0322V17.4819H21.0322V19.4819H13.0322V21.4819H11.0322ZM3.03223 19.4819V17.4819H9.03223V19.4819H3.03223ZM7.03223 15.4819V13.4819H3.03223V11.4819H7.03223V9.48193H9.03223V15.4819H7.03223ZM11.0322 13.4819V11.4819H21.0322V13.4819H11.0322ZM15.0322 9.48193V3.48193H17.0322V5.48193H21.0322V7.48193H17.0322V9.48193H15.0322ZM3.03223 7.48193V5.48193H13.0322V7.48193H3.03223Z" fill="currentColor"/>
</g>
</g>
<defs>
<clipPath id="clip0_2184_6541">
<rect width="24" height="24" fill="white"/>
</clipPath>
</defs>
</svg>
