<svg width="24" height="24" viewBox="0 0 24 24" fill="none" xmlns="http://www.w3.org/2000/svg">
<g id="Type=Export, Variants=Edit" clip-path="url(#clip0_2184_6582)">
<mask id="mask0_2184_6582" style="mask-type:alpha" maskUnits="userSpaceOnUse" x="-1" y="0" width="25" height="25">
<rect id="Bounding box" x="-0.272949" y="0.0551758" width="24" height="24" fill="#D9D9D9"/>
</mask>
<g mask="url(#mask0_2184_6582)">
<path id="Edit" d="M1.72705 24.0552V20.0552H21.7271V24.0552H1.72705ZM5.72705 16.0552H7.12705L14.9271 8.28018L13.5021 6.85518L5.72705 14.6552V16.0552ZM3.72705 18.0552V13.8052L14.9271 2.63018C15.1104 2.44684 15.3229 2.30518 15.5646 2.20518C15.8062 2.10518 16.0604 2.05518 16.3271 2.05518C16.5937 2.05518 16.8521 2.10518 17.1021 2.20518C17.3521 2.30518 17.5771 2.45518 17.7771 2.65518L19.1521 4.05518C19.3521 4.23851 19.4979 4.45518 19.5896 4.70518C19.6812 4.95518 19.7271 5.21351 19.7271 5.48018C19.7271 5.73018 19.6812 5.97601 19.5896 6.21768C19.4979 6.45934 19.3521 6.68018 19.1521 6.88018L7.97705 18.0552H3.72705Z" fill="currentColor"/>
</g>
</g>
<defs>
<clipPath id="clip0_2184_6582">
<rect width="24" height="24" fill="white"/>
</clipPath>
</defs>
</svg>
