<svg width="24" height="24" viewBox="0 0 24 24" fill="none" xmlns="http://www.w3.org/2000/svg">
<g id="Type=Export, Variants=Information" clip-path="url(#clip0_2184_6559)">
<mask id="mask0_2184_6559" style="mask-type:alpha" maskUnits="userSpaceOnUse" x="0" y="-1" width="25" height="25">
<rect id="Bounding box" x="0.461426" y="-0.35144" width="24" height="24" fill="#D9D9D9"/>
</mask>
<g mask="url(#mask0_2184_6559)">
<path id="Information" d="M11.4614 16.6486H13.4614V10.6486H11.4614V16.6486ZM12.4614 8.64856C12.7448 8.64856 12.9823 8.55273 13.1739 8.36106C13.3656 8.16939 13.4614 7.93189 13.4614 7.64856C13.4614 7.36523 13.3656 7.12773 13.1739 6.93606C12.9823 6.74439 12.7448 6.64856 12.4614 6.64856C12.1781 6.64856 11.9406 6.74439 11.7489 6.93606C11.5573 7.12773 11.4614 7.36523 11.4614 7.64856C11.4614 7.93189 11.5573 8.16939 11.7489 8.36106C11.9406 8.55273 12.1781 8.64856 12.4614 8.64856ZM12.4614 21.6486C11.0781 21.6486 9.77809 21.3861 8.56143 20.8611C7.34476 20.3361 6.28643 19.6236 5.38643 18.7236C4.48643 17.8236 3.77393 16.7652 3.24893 15.5486C2.72393 14.3319 2.46143 13.0319 2.46143 11.6486C2.46143 10.2652 2.72393 8.96523 3.24893 7.74856C3.77393 6.53189 4.48643 5.47356 5.38643 4.57356C6.28643 3.67356 7.34476 2.96106 8.56143 2.43606C9.77809 1.91106 11.0781 1.64856 12.4614 1.64856C13.8448 1.64856 15.1448 1.91106 16.3614 2.43606C17.5781 2.96106 18.6364 3.67356 19.5364 4.57356C20.4364 5.47356 21.1489 6.53189 21.6739 7.74856C22.1989 8.96523 22.4614 10.2652 22.4614 11.6486C22.4614 13.0319 22.1989 14.3319 21.6739 15.5486C21.1489 16.7652 20.4364 17.8236 19.5364 18.7236C18.6364 19.6236 17.5781 20.3361 16.3614 20.8611C15.1448 21.3861 13.8448 21.6486 12.4614 21.6486ZM12.4614 19.6486C14.6948 19.6486 16.5864 18.8736 18.1364 17.3236C19.6864 15.7736 20.4614 13.8819 20.4614 11.6486C20.4614 9.41523 19.6864 7.52356 18.1364 5.97356C16.5864 4.42356 14.6948 3.64856 12.4614 3.64856C10.2281 3.64856 8.33643 4.42356 6.78643 5.97356C5.23643 7.52356 4.46143 9.41523 4.46143 11.6486C4.46143 13.8819 5.23643 15.7736 6.78643 17.3236C8.33643 18.8736 10.2281 19.6486 12.4614 19.6486Z" fill="currentColor"/>
</g>
</g>
<defs>
<clipPath id="clip0_2184_6559">
<rect width="24" height="24" fill="white"/>
</clipPath>
</defs>
</svg>
