<svg width="24" height="24" viewBox="0 0 24 24" fill="none" xmlns="http://www.w3.org/2000/svg">
<g id="Type=Export, Variants=User" clip-path="url(#clip0_2184_6544)">
<mask id="mask0_2184_6544" style="mask-type:alpha" maskUnits="userSpaceOnUse" x="-1" y="0" width="25" height="25">
<rect id="Bounding box" x="-0.150879" y="0.0588379" width="24" height="24" fill="#D9D9D9"/>
</mask>
<g mask="url(#mask0_2184_6544)">
<path id="Person" d="M11.8491 12.0588C10.7491 12.0588 9.80745 11.6672 9.02412 10.8838C8.24079 10.1005 7.84912 9.15884 7.84912 8.05884C7.84912 6.95884 8.24079 6.01717 9.02412 5.23384C9.80745 4.4505 10.7491 4.05884 11.8491 4.05884C12.9491 4.05884 13.8908 4.4505 14.6741 5.23384C15.4575 6.01717 15.8491 6.95884 15.8491 8.05884C15.8491 9.15884 15.4575 10.1005 14.6741 10.8838C13.8908 11.6672 12.9491 12.0588 11.8491 12.0588ZM3.84912 20.0588V17.2588C3.84912 16.6922 3.99495 16.1713 4.28662 15.6963C4.57829 15.2213 4.96579 14.8588 5.44912 14.6088C6.48245 14.0922 7.53245 13.7047 8.59912 13.4463C9.66579 13.188 10.7491 13.0588 11.8491 13.0588C12.9491 13.0588 14.0325 13.188 15.0991 13.4463C16.1658 13.7047 17.2158 14.0922 18.2491 14.6088C18.7325 14.8588 19.12 15.2213 19.4116 15.6963C19.7033 16.1713 19.8491 16.6922 19.8491 17.2588V20.0588H3.84912ZM5.84912 18.0588H17.8491V17.2588C17.8491 17.0755 17.8033 16.9088 17.7116 16.7588C17.62 16.6088 17.4991 16.4922 17.3491 16.4088C16.4491 15.9588 15.5408 15.6213 14.6241 15.3963C13.7075 15.1713 12.7825 15.0588 11.8491 15.0588C10.9158 15.0588 9.99079 15.1713 9.07412 15.3963C8.15745 15.6213 7.24912 15.9588 6.34912 16.4088C6.19912 16.4922 6.07829 16.6088 5.98662 16.7588C5.89495 16.9088 5.84912 17.0755 5.84912 17.2588V18.0588ZM11.8491 10.0588C12.3991 10.0588 12.87 9.863 13.2616 9.47134C13.6533 9.07967 13.8491 8.60884 13.8491 8.05884C13.8491 7.50884 13.6533 7.038 13.2616 6.64634C12.87 6.25467 12.3991 6.05884 11.8491 6.05884C11.2991 6.05884 10.8283 6.25467 10.4366 6.64634C10.045 7.038 9.84912 7.50884 9.84912 8.05884C9.84912 8.60884 10.045 9.07967 10.4366 9.47134C10.8283 9.863 11.2991 10.0588 11.8491 10.0588Z" fill="currentColor"/>
</g>
</g>
<defs>
<clipPath id="clip0_2184_6544">
<rect width="24" height="24" fill="white"/>
</clipPath>
</defs>
</svg>
