<svg width="24" height="24" viewBox="0 0 24 24" fill="none" xmlns="http://www.w3.org/2000/svg">
<g id="Type=Calendar">
<g id="Vector">
<path d="M7.25 12C7.25 11.4477 7.69772 11 8.25 11H10.875C11.2594 11 11.6098 11.2203 11.7763 11.5668C11.9428 11.9133 11.896 12.3245 11.6559 12.6247L10.9864 13.4615C11.1657 13.6122 11.3236 13.788 11.4549 13.984C11.6838 14.3259 11.8248 14.719 11.8654 15.1284C11.906 15.5379 11.8449 15.951 11.6875 16.3311C11.5302 16.7113 11.2814 17.0467 10.9633 17.3077C10.6453 17.5687 10.2677 17.7471 9.86412 17.8272C9.46055 17.9073 9.04346 17.8865 8.64984 17.7667C8.25622 17.647 7.89824 17.4319 7.60766 17.1406C7.21761 16.7496 7.21838 16.1165 7.60937 15.7264C8.00037 15.3364 8.63353 15.3371 9.02359 15.7281C9.0817 15.7864 9.1533 15.8294 9.23202 15.8533C9.31074 15.8773 9.39416 15.8815 9.47488 15.8654C9.55559 15.8494 9.6311 15.8137 9.69472 15.7615C9.75834 15.7093 9.80808 15.6423 9.83955 15.5662C9.87103 15.4902 9.88324 15.4076 9.87513 15.3257C9.86701 15.2438 9.83881 15.1652 9.79303 15.0968C9.74724 15.0284 9.68529 14.9724 9.61267 14.9337C9.54005 14.895 9.459 14.8749 9.37671 14.875C8.992 14.8757 8.64102 14.6556 8.47407 14.309C8.30712 13.9624 8.3538 13.5507 8.59413 13.2503L8.79438 13H8.25C7.69772 13 7.25 12.5523 7.25 12Z" fill="currentColor"/>
<path d="M16.375 12C16.375 11.6212 16.161 11.275 15.8222 11.1056C15.4834 10.9362 15.078 10.9727 14.775 11.2L13.275 12.325C12.8332 12.6564 12.7436 13.2832 13.075 13.725C13.3821 14.1344 13.9428 14.2413 14.375 13.9911V16.875C14.375 17.4273 14.8227 17.875 15.375 17.875C15.9273 17.875 16.375 17.4273 16.375 16.875V12Z" fill="currentColor"/>
<path fill-rule="evenodd" clip-rule="evenodd" d="M17.5 1.875C17.5 1.32272 17.0523 0.875 16.5 0.875C15.9477 0.875 15.5 1.32272 15.5 1.875V2.75H8.5V1.875C8.5 1.32272 8.05228 0.875 7.5 0.875C6.94772 0.875 6.5 1.32272 6.5 1.875V2.75H4.5C3.5335 2.75 2.75 3.5335 2.75 4.5V19.5C2.75 20.4665 3.5335 21.25 4.5 21.25H19.5C20.4665 21.25 21.25 20.4665 21.25 19.5V4.5C21.25 3.5335 20.4665 2.75 19.5 2.75H17.5V1.875ZM19.25 7.25V4.75H4.75V7.25H19.25ZM4.75 9.25H19.25V19.25H4.75V9.25Z" fill="currentColor"/>
</g>
</g>
</svg>
